<?xml version="1.0" encoding="utf-8"?>
<!-- Generator: Adobe Illustrator 16.0.0, SVG Export Plug-In . SVG Version: 6.00 Build 0)  -->
<!DOCTYPE svg PUBLIC "-//W3C//DTD SVG 1.1//EN" "http://www.w3.org/Graphics/SVG/1.1/DTD/svg11.dtd">
<svg version="1.1" id="Layer_1" xmlns="http://www.w3.org/2000/svg" xmlns:xlink="http://www.w3.org/1999/xlink" x="0px" y="0px"
	 width="800.217px" height="430px" viewBox="0 0 800.217 430" enable-background="new 0 0 800.217 430" xml:space="preserve">
<g>
	<g>
		<g>
			<path fill="#183669" d="M296.957,416.25l-5.77-24.166h4.995l3.643,16.6l4.417-16.6h5.803l4.236,16.88l3.709-16.88h4.913
				l-5.869,24.166h-5.176l-4.813-18.067l-4.797,18.067H296.957z"/>
			<path fill="#183669" d="M330.811,416.25v-24.166h4.879v9.512h9.561v-9.512h4.879v24.166h-4.879v-10.566h-9.561v10.566H330.811z"
				/>
			<path fill="#183669" d="M366.247,416.25v-10.171l-8.852-13.995h5.72l5.687,9.561l5.572-9.561h5.621l-8.885,14.028v10.138H366.247
				z"/>
			<path fill="#183669" d="M397.316,416.25v-24.166h4.747l9.891,16.138v-16.138h4.533v24.166h-4.896l-9.742-15.759v15.759H397.316z"
				/>
			<path fill="#183669" d="M426.735,404.315c0-2.462,0.368-4.527,1.104-6.198c0.55-1.23,1.3-2.335,2.25-3.313
				c0.951-0.978,1.992-1.703,3.124-2.176c1.506-0.638,3.242-0.956,5.209-0.956c3.561,0,6.41,1.104,8.548,3.313
				c2.137,2.209,3.206,5.28,3.206,9.215c0,3.901-1.061,6.953-3.182,9.157c-2.121,2.203-4.956,3.305-8.506,3.305
				c-3.594,0-6.451-1.097-8.572-3.289S426.735,408.162,426.735,404.315z M431.764,404.15c0,2.736,0.632,4.811,1.896,6.223
				s2.868,2.118,4.813,2.118s3.541-0.7,4.789-2.102c1.247-1.401,1.87-3.503,1.87-6.305c0-2.77-0.606-4.836-1.821-6.198
				c-1.214-1.363-2.827-2.044-4.838-2.044s-3.633,0.689-4.863,2.068S431.764,401.37,431.764,404.15z"/>
			<path fill="#183669" d="M464.826,416.25v-20.078h-7.171v-4.088h19.204v4.088h-7.154v20.078H464.826z"/>
			<path fill="#183669" d="M495.333,410.019h-4.204c-0.011-0.604-0.016-0.973-0.016-1.104c0-1.362,0.225-2.483,0.676-3.362
				c0.45-0.879,1.352-1.868,2.703-2.968c1.352-1.099,2.159-1.818,2.423-2.159c0.407-0.538,0.61-1.132,0.61-1.78
				c0-0.9-0.36-1.673-1.08-2.316c-0.72-0.643-1.689-0.964-2.909-0.964c-1.176,0-2.159,0.335-2.951,1.006
				c-0.791,0.67-1.335,1.692-1.632,3.065l-4.253-0.527c0.121-1.967,0.959-3.637,2.514-5.011c1.556-1.374,3.597-2.061,6.124-2.061
				c2.66,0,4.775,0.695,6.347,2.085c1.571,1.391,2.357,3.009,2.357,4.854c0,1.022-0.288,1.989-0.865,2.901s-1.811,2.154-3.701,3.726
				c-0.978,0.813-1.585,1.467-1.821,1.962C495.418,407.859,495.311,408.744,495.333,410.019z M491.129,416.25v-4.632h4.633v4.632
				H491.129z"/>
		</g>
		<g>
			<g>
				<path fill="#BE1E2D" d="M115.509,301.426v53.187c0,16.614-8.673,27.69-26.123,27.69c-8.777,0-15.569-4.389-20.271-11.599
					l11.808-12.435c2.299,3.135,5.538,6.688,8.255,6.688c6.061,0,5.852-7.21,5.852-11.599v-51.933H115.509z"/>
				<path fill="#BE1E2D" d="M194.712,301.426v44.305c0,10.136-0.418,20.167-8.255,27.795c-6.583,6.479-16.928,8.777-26.123,8.777
					s-19.54-2.299-26.123-8.777c-7.837-7.628-8.255-17.659-8.255-27.795v-44.305h20.48v41.483c0,10.24,0.731,21.421,13.897,21.421
					s13.897-11.181,13.897-21.421v-41.483H194.712z"/>
				<path fill="#BE1E2D" d="M246.747,321.697c-3.762-3.135-8.568-5.225-13.584-5.225c-3.762,0-8.777,2.194-8.777,6.583
					c0,4.598,5.538,6.374,9.091,7.523l5.225,1.567c10.972,3.239,19.436,8.777,19.436,21.525c0,7.837-1.881,15.883-8.15,21.212
					c-6.165,5.225-14.42,7.419-22.361,7.419c-9.927,0-19.645-3.344-27.69-8.986l8.777-16.51c5.12,4.493,11.181,8.15,18.182,8.15
					c4.807,0,9.927-2.403,9.927-7.941c0-5.747-8.046-7.732-12.435-8.986c-12.853-3.657-21.316-7.001-21.316-22.257
					c0-15.987,11.39-26.437,27.168-26.437c7.941,0,17.659,2.508,24.66,6.479L246.747,321.697z"/>
				<path fill="#BE1E2D" d="M297.109,380.213h-20.48v-61.441h-16.928v-17.346h54.336v17.346h-16.928V380.213z"/>
				<path fill="#183669" d="M321.453,301.426h29.049c21.943,0,40.021,17.241,40.021,39.394s-18.182,39.394-40.021,39.394h-29.049
					V301.426z M341.934,362.867h4.598c12.226,0,22.675-6.688,22.675-22.048c0-14.106-9.3-22.048-22.466-22.048h-4.807V362.867z"/>
				<path fill="#183669" d="M418.419,318.771v13.166h23.093v17.346h-23.093v13.584h24.347v17.346h-44.827v-78.787h44.827v17.346
					H418.419z"/>
				<path fill="#183669" d="M455.406,380.213v-78.787h29.258c14.002,0,23.406,5.434,23.406,20.48c0,7.105-2.299,12.853-8.673,16.092
					v0.209c11.285,1.463,16.092,9.091,16.092,20.063c0,16.51-14.106,21.943-28.526,21.943H455.406z M475.887,332.355h2.299
					c5.434,0,11.076-0.94,11.076-7.628c0-7.21-6.374-7.628-11.912-7.628h-1.463V332.355z M475.887,364.539h2.612
					c6.061,0,16.301,0.313,16.301-8.359c0-9.509-10.136-8.568-16.823-8.568h-2.09V364.539z"/>
				<path fill="#183669" d="M542.026,366.524l-5.434,13.688h-21.734l30.303-78.787h22.361l29.676,78.787h-21.839l-5.12-13.688
					H542.026z M556.342,325.772h-0.209l-8.464,25.078h17.032L556.342,325.772z"/>
				<path fill="#183669" d="M626.557,380.213h-20.48v-61.441h-16.928v-17.346h54.336v17.346h-16.928V380.213z"/>
				<path fill="#183669" d="M671.381,318.771v13.166h23.093v17.346h-23.093v13.584h24.347v17.346H650.9v-78.787h44.827v17.346
					H671.381z"/>
			</g>
			<g display="none">
				<path display="inline" fill="#183669" d="M721.305,371.177c1.737,0,3.176,1.411,3.176,3.176s-1.438,3.176-3.176,3.176
					c-1.765,0-3.177-1.411-3.177-3.176S719.54,371.177,721.305,371.177z"/>
				<path display="inline" fill="#183669" d="M713.323,345.282c6.624,0,11.293,4.75,11.293,11.319s-4.669,11.319-11.293,11.319
					c-6.188,0-10.532-5.429-10.532-11.319S707.135,345.282,713.323,345.282z M713.351,362.384c3.529,0,6.108-2.606,6.108-5.782
					s-2.579-5.782-6.108-5.782c-2.823,0-5.401,2.606-5.401,5.782S710.527,362.384,713.351,362.384z"/>
				<path display="inline" fill="#183669" d="M723.938,324.709v6.624l-7.872,5.021v0.055h7.872v5.32H703.47v-7.953
					c0-4.045,1.928-7.112,6.298-7.112c2.823,0,5.267,1.574,5.782,4.479L723.938,324.709z M712.645,336.409v-0.516
					c0-1.737-0.325-3.692-2.551-3.692c-2.227,0-2.552,1.955-2.552,3.692v0.516H712.645z"/>
				<path display="inline" fill="#183669" d="M712.51,301.775c2.985,0.054,5.537,0.271,8.089,2.09
					c2.796,2.009,4.018,5.022,4.018,8.442c0,6.434-4.37,10.912-10.804,10.912c-6.65,0-11.021-4.506-11.021-11.103
					c0-4.207,1.9-7.465,5.728-9.229l2.118,5.05c-1.955,0.732-3.258,2.28-3.258,4.425c0,3.501,3.339,5.32,6.461,5.32
					c3.176,0,6.406-1.9,6.406-5.402c0-2.308-1.194-4.071-3.557-4.289v4.344h-4.18V301.775z"/>
			</g>
		</g>
	</g>
	<g>
		<g>
			<path fill="#BE1E2D" d="M349.802,91.455c-0.396-13.645-3.91-36.857-21.587-53.874l0.112-0.174c0,0,1.721-2.932-0.27-3.962
				l-22.38-11.332c0,0,0.256-9.799-18.053-9.857c0,0-8.382,1.362-6.536,11.606c0,0,8.781,16.125,21.067,8.313l6.53,3.018v48.648
				l-10.015-1.854v177.952l63.18-9.477l22.112-152.681L349.802,91.455z M314.349,37.809l7.836,3.62c0,0,1.765,1.5,3.27,0.438
				l1.275-1.979c15.432,14.333,19.099,37.428,19.847,50.969l-32.227-5.968V37.809z"/>
			<polygon fill="#6F000A" points="298.672,81.986 256.912,144.646 266.484,250.872 298.672,259.938 			"/>
		</g>
		<g>
			<path fill="#183669" d="M512.591,12.256c-18.308,0.059-18.054,9.857-18.054,9.857l-22.38,11.332
				c-1.99,1.03-0.27,3.962-0.27,3.962L472,37.582c-17.677,17.017-21.189,40.229-21.586,53.873l-34.163,6.326l22.112,152.681
				l63.182,9.477V81.986l-10.019,1.855V35.192l6.532-3.018c12.285,7.813,21.068-8.313,21.068-8.313
				C520.972,13.618,512.591,12.256,512.591,12.256z M485.867,84.89l-32.228,5.968c0.747-13.541,4.414-36.636,19.847-50.969
				l1.273,1.979c1.506,1.062,3.27-0.438,3.27-0.438l7.838-3.621V84.89z"/>
			<polygon fill="#000029" points="501.545,81.986 543.306,144.646 533.73,250.872 501.545,259.938 			"/>
		</g>
	</g>
</g>
</svg>
